<svg xmlns="http://www.w3.org/2000/svg" viewBox="0 0 151 68.805"><defs><style>.a,.b,.d,.e,.h{fill:none;}.a,.b,.d,.e{stroke:#fff;}.a,.e{stroke-linecap:round;}.a,.d{stroke-linejoin:round;}.c,.f{fill:#fff;}.c{font-size:24px;font-family:Geneva;}.g{stroke:none;}</style></defs><g transform="translate(-8 -19.195)"><path class="a" d="M2431.937,51.439c-1.632,1.489-1.792,3.026-4.257,2.392s-4.984-2.376-7.82-7.015a18.52,18.52,0,0,1-1.926-12.884c.621-2.317,2.094-5.434,5.843-6.244,2.557-.552,5.422,1.242,6.725,2.244a18.367,18.367,0,0,1,1.435,1.182s2.75-14.135-3.661-13.081" transform="translate(-2392.5 3.514)"/><path class="a" d="M2430.854,29.411c-1.509-1.437-2.175-2.782-4.453-2.169s-4.093,2.627-6.716,7.106a18.579,18.579,0,0,0-1.781,12.44c.574,2.237,1.937,5.247,5.4,6.029,2.365.533,5.014-1.2,6.219-2.167a3.141,3.141,0,0,1,1.327-.766s-1.33,9.847,3.669,12.509" transform="translate(2470.4 84.347) rotate(180)"/><path class="b" d="M2440.277,17.357c5.723,4.694-7.569,9.021-7.569,9.021S2434.554,12.662,2440.277,17.357Z" transform="translate(2433.264 511.793) rotate(-169)"/><path class="b" d="M67.378,17.62" transform="translate(-28.5 4.514)"/><path class="b" d="M2436.072,16.769c2.543,1.878-3.364,3.608-3.364,3.608S2433.528,14.892,2436.072,16.769Z" transform="matrix(0.755, -0.656, 0.656, 0.755, -1813.63, 1627.755)"/><path class="b" d="M2436.072,16.769c2.543,1.878-3.364,3.608-3.364,3.608S2433.528,14.892,2436.072,16.769Z" transform="matrix(0.755, -0.656, 0.656, 0.755, -1808.63, 1627.755)"/><path class="a" d="M-2387.921,10h0Zm-.117,0c-8.914-6.066,0-10,0-10H-2346s-9.338,5.38,0,10Z" transform="translate(2408 58)"/><text class="c" transform="translate(78 60.105)"><tspan x="0" y="0">BOOKS</tspan></text><g class="d" transform="translate(13 68)"><rect class="g" width="55" height="8"/><rect class="h" x="0.5" y="0.5" width="54" height="7"/></g><g class="d" transform="translate(8 75)"><rect class="g" width="70" height="13"/><rect class="h" x="0.5" y="0.5" width="69" height="12"/></g><line class="e" y2="7" transform="translate(22.5 68.5)"/><line class="e" y2="7" transform="translate(27.5 68.5)"/><line class="e" y2="7" transform="translate(32.5 68.5)"/><circle class="f" cx="3" cy="3" r="3" transform="translate(14 79)"/><rect class="f" width="3" height="5" transform="translate(54 79)"/><rect class="f" width="3" height="5" transform="translate(60 79)"/><rect class="f" width="3" height="5" transform="translate(66 79)"/></g></svg>